<svg width="77" height="80" viewBox="0 0 77 80" fill="none" xmlns="http://www.w3.org/2000/svg">
<path d="M45.2624 10.3735C45.8812 10.0162 46.6435 10.0162 47.2622 10.3735L76.0784 27.009C76.7451 27.3939 76.7451 28.3562 76.0784 28.7411L54.0836 41.4387C53.4169 41.8236 53.4169 42.7859 54.0836 43.1708L69.3069 51.9592C69.9736 52.3441 69.9736 53.3064 69.3069 53.6913L54.0927 62.4744C53.474 62.8316 52.7116 62.8316 52.0929 62.4744L21.7223 44.9415C21.0556 44.5566 21.0556 43.5943 21.7223 43.2094L37.9315 33.8519C37.9335 33.8507 37.9359 33.8501 37.9382 33.8501C37.9406 33.8501 37.9429 33.8494 37.945 33.8483L43.7208 30.5139C44.3875 30.129 44.3875 29.1667 43.7208 28.7818L30.0482 20.8887C29.3815 20.5038 29.3815 19.5415 30.0482 19.1566L45.2624 10.3735Z" fill="#E6DB3D"/>
<path d="M11.8645 0.134828C11.023 -0.342652 10.0614 0.534279 10.4596 1.41612L24.0532 31.7347C24.2896 32.2581 24.0376 32.8726 23.5018 33.0793L0.64011 44.2848C-0.166145 44.5959 -0.224887 45.7141 0.544341 46.1079L66.4377 79.8419C67.3152 80.2912 68.2447 79.3338 67.7696 78.4699L59.313 63.0914C59.043 62.6003 58.4222 62.427 57.9368 62.7072L53.5657 65.2306C53.2563 65.4092 52.8751 65.4092 52.5657 65.2306L17.4209 44.9415C16.7542 44.5566 16.7542 43.5943 17.4209 43.2094L33.6331 33.8501H33.6369H33.6406L39.4194 30.5141C40.0861 30.1292 40.0861 29.1669 39.4194 28.782L25.7468 20.8888C25.0801 20.5039 25.0801 19.5416 25.7468 19.1567L33.9704 14.4093C34.6399 14.0227 34.6363 13.055 33.9639 12.6735L11.8645 0.134828Z" fill="#455946"/>
</svg>
