<?xml version="1.0" encoding="UTF-8"?>
<svg viewBox="0 0 138 132" xmlns="http://www.w3.org/2000/svg">
<path fill="#E6DB3D" d="M48.383 37.493c0-1.028 0-1.542-.212-1.812a.99.99 0 0 0-.763-.377c-.343-.006-.752.306-1.57.93l-18.271 13.93c-1.144.872-1.716 1.308-2.128 1.857a4.95 4.95 0 0 0-.803 1.623c-.188.66-.188 1.38-.188 2.818v37.36c0 1.191 0 1.787.236 2.064a.99.99 0 0 0 .828.346c.363-.028.787-.446 1.634-1.283l18.883-18.658c.868-.858 1.303-1.287 1.613-1.79.275-.444.479-.93.602-1.44.139-.573.139-1.183.139-2.404V37.493Zm-13.135 67.806c-.845.848-1.267 1.272-1.295 1.636a.988.988 0 0 0 .345.829c.277.237.876.237 2.072.237h36.895c1.3 0 1.951 0 2.558-.156a4.935 4.935 0 0 0 1.51-.674c.522-.347.956-.831 1.825-1.799l17.42-19.405c.751-.837 1.127-1.256 1.141-1.612a.99.99 0 0 0-.358-.803c-.275-.227-.837-.227-1.962-.227H60.42c-1.214 0-1.821 0-2.392.137a4.95 4.95 0 0 0-1.434.596c-.5.308-.93.738-1.786 1.598L35.248 105.3ZM96.31 70.125c.924 0 1.386 0 1.739-.18.31-.158.562-.41.72-.721.18-.353.18-.815.18-1.74v-32.2c0-.924 0-1.386-.18-1.74a1.65 1.65 0 0 0-.72-.72c-.353-.18-.816-.18-1.74-.18H64.093c-.925 0-1.387 0-1.74.18a1.65 1.65 0 0 0-.72.72c-.18.354-.18.816-.18 1.74v32.2c0 .925 0 1.387.18 1.74.158.31.41.563.72.721.353.18.816.18 1.74.18h32.216Z"></path>
<path fill="#2a2a2a" fill-rule="evenodd" stroke="#2a2a2a" clip-rule="evenodd" d="M43.248 21.45c-1.345 0-2.017 0-2.375-.278a1.32 1.32 0 0 1-.509-1.005c-.012-.453.386-.995 1.182-2.08l11.58-15.77c.577-.784.865-1.176 1.22-1.315a1.32 1.32 0 0 1 .966 0c.355.14.643.531 1.22 1.316l11.58 15.77c.797 1.084 1.195 1.626 1.182 2.079a1.32 1.32 0 0 1-.509 1.005c-.357.278-1.03.278-2.375.278h-6.169c-.74 0-1.109 0-1.391.144a1.32 1.32 0 0 0-.577.577c-.144.282-.144.652-.144 1.39v44.584c0 1.848 0 2.772.36 3.478a3.3 3.3 0 0 0 1.442 1.442c.706.36 1.63.36 3.478.36h43.911c.74 0 1.109 0 1.392-.144a1.33 1.33 0 0 0 .577-.577c.143-.282.143-.652.143-1.391v-6.344c0-1.296 0-1.944.27-2.298a1.32 1.32 0 0 1 .981-.519c.445-.023.981.342 2.051 1.072l17.24 11.756c.858.585 1.287.878 1.437 1.244.131.321.131.68 0 1.001-.15.367-.579.66-1.437 1.245l-17.24 11.756c-1.07.73-1.606 1.095-2.051 1.072a1.32 1.32 0 0 1-.981-.519c-.27-.354-.27-1.002-.27-2.298v-6.344c0-.74 0-1.109-.143-1.391a1.325 1.325 0 0 0-.577-.577c-.283-.144-.652-.144-1.392-.144H60.523c-1.602 0-2.403 0-3.157.18a6.6 6.6 0 0 0-1.896.779c-.663.402-1.232.965-2.371 2.091l-28.574 28.249c-.525.518-.787.777-.887 1.077a1.32 1.32 0 0 0-.006.815c.096.301.354.564.871 1.09l3.663 3.727c.861.875 1.291 1.313 1.353 1.742a1.32 1.32 0 0 1-.302 1.042c-.28.331-.878.471-2.073.752l-19.93 4.686c-1.117.262-1.676.394-2.064.237a1.321 1.321 0 0 1-.738-.75c-.15-.391-.01-.948.272-2.061l5.012-19.836c.301-1.191.452-1.786.787-2.062a1.32 1.32 0 0 1 1.047-.283c.429.068.86.506 1.72 1.382l3.653 3.717c.52.528.78.793 1.08.893.266.088.552.09.818.006.303-.096.566-.357 1.093-.878l28.5-28.174c1.156-1.143 1.735-1.715 2.149-2.385a6.6 6.6 0 0 0 .801-1.919c.185-.765.185-1.578.185-3.205V23.562c0-.74 0-1.109-.144-1.391a1.32 1.32 0 0 0-.577-.577c-.282-.144-.652-.144-1.391-.144h-6.17Z"></path>
</svg>