<svg width="676" height="132" viewBox="0 0 676 132" fill="none" xmlns="http://www.w3.org/2000/svg">
<path d="M48.383 37.493C48.383 36.465 48.383 35.951 48.171 35.681C48.0799 35.5654 47.9641 35.4715 47.8321 35.4063C47.7001 35.3411 47.5552 35.3061 47.408 35.304C47.065 35.298 46.656 35.61 45.838 36.234L27.567 50.164C26.423 51.036 25.851 51.472 25.439 52.021C25.0738 52.508 24.8016 53.0582 24.636 53.644C24.448 54.304 24.448 55.024 24.448 56.462V93.822C24.448 95.013 24.448 95.609 24.684 95.886C24.785 96.0048 24.9127 96.0981 25.0565 96.1582C25.2004 96.2183 25.3565 96.2436 25.512 96.232C25.875 96.204 26.299 95.786 27.146 94.949L46.029 76.291C46.897 75.433 47.332 75.004 47.642 74.501C47.917 74.057 48.121 73.571 48.244 73.061C48.383 72.488 48.383 71.878 48.383 70.657V37.493ZM35.248 105.299C34.403 106.147 33.981 106.571 33.953 106.935C33.9409 107.091 33.9659 107.247 34.0259 107.391C34.0858 107.535 34.1791 107.663 34.298 107.764C34.575 108.001 35.174 108.001 36.37 108.001H73.265C74.565 108.001 75.216 108.001 75.823 107.845C76.3607 107.707 76.8712 107.479 77.333 107.171C77.855 106.824 78.289 106.34 79.158 105.372L96.578 85.967C97.329 85.13 97.705 84.711 97.719 84.355C97.7252 84.2026 97.6961 84.0509 97.634 83.9116C97.5719 83.7723 97.4785 83.6492 97.361 83.552C97.086 83.325 96.524 83.325 95.399 83.325H60.42C59.206 83.325 58.599 83.325 58.028 83.462C57.5216 83.584 57.0377 83.7851 56.594 84.058C56.094 84.366 55.664 84.796 54.808 85.656L35.248 105.3V105.299ZM96.31 70.125C97.234 70.125 97.696 70.125 98.049 69.945C98.359 69.787 98.611 69.535 98.769 69.224C98.949 68.871 98.949 68.409 98.949 67.484V35.284C98.949 34.36 98.949 33.898 98.769 33.544C98.6109 33.2341 98.3589 32.9821 98.049 32.824C97.696 32.644 97.233 32.644 96.309 32.644H64.093C63.168 32.644 62.706 32.644 62.353 32.824C62.0431 32.9821 61.7911 33.2341 61.633 33.544C61.453 33.898 61.453 34.36 61.453 35.284V67.484C61.453 68.409 61.453 68.871 61.633 69.224C61.791 69.534 62.043 69.787 62.353 69.945C62.706 70.125 63.169 70.125 64.093 70.125H96.31Z" fill="#E6DB3D"/>
<path fill-rule="evenodd" clip-rule="evenodd" d="M43.248 21.45C41.903 21.45 41.231 21.45 40.873 21.172C40.7193 21.0524 40.5939 20.9003 40.5059 20.7265C40.4179 20.5528 40.3694 20.3617 40.364 20.167C40.352 19.714 40.75 19.172 41.546 18.087L53.126 2.317C53.703 1.533 53.991 1.141 54.346 1.002C54.6564 0.879948 55.0016 0.879948 55.312 1.002C55.667 1.142 55.955 1.533 56.532 2.318L68.112 18.088C68.909 19.172 69.307 19.714 69.294 20.167C69.2885 20.3617 69.2401 20.5528 69.1521 20.7265C69.0641 20.9003 68.9387 21.0524 68.785 21.172C68.428 21.45 67.755 21.45 66.41 21.45H60.241C59.501 21.45 59.132 21.45 58.85 21.594C58.6015 21.7206 58.3996 21.9226 58.273 22.171C58.129 22.453 58.129 22.823 58.129 23.561V68.145C58.129 69.993 58.129 70.917 58.489 71.623C58.8054 72.2439 59.3101 72.7486 59.931 73.065C60.637 73.425 61.561 73.425 63.409 73.425H107.32C108.06 73.425 108.429 73.425 108.712 73.281C108.96 73.1539 109.162 72.952 109.289 72.704C109.432 72.422 109.432 72.052 109.432 71.313V64.969C109.432 63.673 109.432 63.025 109.702 62.671C109.818 62.5185 109.966 62.393 110.135 62.3034C110.305 62.2138 110.492 62.1621 110.683 62.152C111.128 62.129 111.664 62.494 112.734 63.224L129.974 74.98C130.832 75.565 131.261 75.858 131.411 76.224C131.542 76.545 131.542 76.904 131.411 77.225C131.261 77.592 130.832 77.885 129.974 78.47L112.734 90.226C111.664 90.956 111.128 91.321 110.683 91.298C110.492 91.2879 110.305 91.2362 110.135 91.1466C109.966 91.057 109.818 90.9315 109.702 90.779C109.432 90.425 109.432 89.777 109.432 88.481V82.137C109.432 81.397 109.432 81.028 109.289 80.746C109.162 80.4978 108.96 80.2958 108.712 80.169C108.429 80.025 108.06 80.025 107.32 80.025H60.523C58.921 80.025 58.12 80.025 57.366 80.205C56.6973 80.3643 56.0576 80.6272 55.47 80.984C54.807 81.386 54.238 81.949 53.099 83.075L24.525 111.324C24 111.842 23.738 112.101 23.638 112.401C23.5501 112.665 23.548 112.951 23.632 113.216C23.728 113.517 23.986 113.78 24.503 114.306L28.166 118.033C29.027 118.908 29.457 119.346 29.519 119.775C29.5453 119.96 29.5321 120.149 29.48 120.328C29.4279 120.508 29.3383 120.675 29.217 120.817C28.937 121.148 28.339 121.288 27.144 121.569L7.21399 126.255C6.09699 126.517 5.53799 126.649 5.14999 126.492C4.98216 126.424 4.83005 126.323 4.7031 126.194C4.57615 126.065 4.47706 125.911 4.41199 125.742C4.26199 125.351 4.40199 124.794 4.68399 123.681L9.69599 103.845C9.99699 102.654 10.148 102.059 10.483 101.783C10.6275 101.664 10.7956 101.578 10.9761 101.529C11.1566 101.48 11.3454 101.47 11.53 101.5C11.959 101.568 12.39 102.006 13.25 102.882L16.903 106.599C17.423 107.127 17.683 107.392 17.983 107.492C18.249 107.58 18.535 107.582 18.801 107.498C19.104 107.402 19.367 107.141 19.894 106.62L48.394 78.446C49.55 77.303 50.129 76.731 50.543 76.061C50.9097 75.4677 51.1801 74.82 51.344 74.142C51.529 73.377 51.529 72.564 51.529 70.937V23.562C51.529 22.822 51.529 22.453 51.385 22.171C51.2584 21.9226 51.0564 21.7206 50.808 21.594C50.526 21.45 50.156 21.45 49.417 21.45H43.248Z" fill="#2A2A2A" stroke="#2A2A2A"/>
<mask id="path-3-outside-1_6_8" maskUnits="userSpaceOnUse" x="146" y="35" width="461" height="61" fill="black">
<rect fill="white" x="146" y="35" width="461" height="61"/>
<path d="M155.196 37.2727L172.037 85.0256H172.702L189.543 37.2727H196.744L175.915 94H168.824L147.994 37.2727H155.196ZM218.571 94.8864C214.472 94.8864 210.935 93.9815 207.962 92.1719C205.008 90.3438 202.727 87.7955 201.121 84.527C199.533 81.2401 198.739 77.4176 198.739 73.0597C198.739 68.7017 199.533 64.8608 201.121 61.5369C202.727 58.1946 204.962 55.5909 207.824 53.7259C210.705 51.8423 214.065 50.9006 217.906 50.9006C220.122 50.9006 222.31 51.2699 224.471 52.0085C226.631 52.7472 228.598 53.9474 230.371 55.6094C232.143 57.2528 233.556 59.4318 234.609 62.1463C235.661 64.8608 236.188 68.2031 236.188 72.1733V74.9432H203.392V69.2926H229.54C229.54 66.892 229.06 64.75 228.099 62.8665C227.158 60.983 225.81 59.4964 224.055 58.407C222.32 57.3175 220.27 56.7727 217.906 56.7727C215.303 56.7727 213.05 57.419 211.148 58.7116C209.264 59.9858 207.815 61.6477 206.799 63.6974C205.783 65.7472 205.276 67.9446 205.276 70.2898V74.0568C205.276 77.2699 205.83 79.9936 206.938 82.228C208.064 84.4439 209.624 86.1335 211.619 87.2969C213.613 88.4418 215.93 89.0142 218.571 89.0142C220.288 89.0142 221.839 88.7741 223.224 88.294C224.628 87.7955 225.837 87.0568 226.853 86.0781C227.869 85.081 228.653 83.8437 229.207 82.3665L235.523 84.1392C234.858 86.2812 233.741 88.1648 232.171 89.7898C230.602 91.3963 228.663 92.652 226.354 93.5568C224.046 94.4432 221.452 94.8864 218.571 94.8864ZM263.415 94.8864C259.427 94.8864 255.992 93.9446 253.112 92.0611C250.231 90.1776 248.015 87.5831 246.464 84.2777C244.913 80.9723 244.137 77.196 244.137 72.9489C244.137 68.6278 244.931 64.8146 246.519 61.5092C248.126 58.1854 250.36 55.5909 253.222 53.7259C256.103 51.8423 259.464 50.9006 263.305 50.9006C266.296 50.9006 268.992 51.4545 271.393 52.5625C273.793 53.6705 275.76 55.2216 277.293 57.2159C278.825 59.2102 279.776 61.5369 280.146 64.196H273.609C273.11 62.2571 272.002 60.5398 270.285 59.044C268.586 57.5298 266.296 56.7727 263.415 56.7727C260.867 56.7727 258.633 57.4375 256.712 58.767C254.81 60.0781 253.324 61.9339 252.253 64.3345C251.2 66.7166 250.674 69.5142 250.674 72.7273C250.674 76.0142 251.191 78.8764 252.225 81.3139C253.278 83.7514 254.755 85.6442 256.657 86.9922C258.577 88.3402 260.83 89.0142 263.415 89.0142C265.114 89.0142 266.656 88.7188 268.041 88.1278C269.426 87.5369 270.599 86.6875 271.559 85.5795C272.519 84.4716 273.202 83.142 273.609 81.5909H280.146C279.776 84.1023 278.862 86.3643 277.403 88.3771C275.963 90.3714 274.052 91.9595 271.67 93.1413C269.306 94.3047 266.555 94.8864 263.415 94.8864ZM308.205 51.4545V56.9943H286.156V51.4545H308.205ZM292.582 41.2614H299.119V81.8125C299.119 83.6591 299.387 85.044 299.923 85.9673C300.477 86.8722 301.178 87.4815 302.028 87.7955C302.896 88.0909 303.81 88.2386 304.77 88.2386C305.49 88.2386 306.081 88.2017 306.543 88.1278C307.004 88.0355 307.374 87.9616 307.651 87.9062L308.98 93.7784C308.537 93.9446 307.918 94.1108 307.124 94.277C306.33 94.4616 305.324 94.554 304.105 94.554C302.259 94.554 300.449 94.157 298.676 93.3629C296.922 92.5689 295.463 91.3594 294.3 89.7344C293.155 88.1094 292.582 86.0597 292.582 83.5852V41.2614ZM334.865 94.8864C331.024 94.8864 327.654 93.9723 324.755 92.1442C321.874 90.3161 319.621 87.7585 317.996 84.4716C316.39 81.1847 315.586 77.3437 315.586 72.9489C315.586 68.517 316.39 64.6484 317.996 61.343C319.621 58.0376 321.874 55.4709 324.755 53.6428C327.654 51.8146 331.024 50.9006 334.865 50.9006C338.706 50.9006 342.066 51.8146 344.947 53.6428C347.846 55.4709 350.099 58.0376 351.706 61.343C353.331 64.6484 354.143 68.517 354.143 72.9489C354.143 77.3437 353.331 81.1847 351.706 84.4716C350.099 87.7585 347.846 90.3161 344.947 92.1442C342.066 93.9723 338.706 94.8864 334.865 94.8864ZM334.865 89.0142C337.782 89.0142 340.183 88.2663 342.066 86.7706C343.95 85.2749 345.344 83.3082 346.249 80.8707C347.154 78.4332 347.606 75.7926 347.606 72.9489C347.606 70.1051 347.154 67.4553 346.249 64.9993C345.344 62.5433 343.95 60.5582 342.066 59.044C340.183 57.5298 337.782 56.7727 334.865 56.7727C331.947 56.7727 329.547 57.5298 327.663 59.044C325.779 60.5582 324.385 62.5433 323.48 64.9993C322.576 67.4553 322.123 70.1051 322.123 72.9489C322.123 75.7926 322.576 78.4332 323.48 80.8707C324.385 83.3082 325.779 85.2749 327.663 86.7706C329.547 88.2663 331.947 89.0142 334.865 89.0142ZM364.122 94V51.4545H370.437V57.8807H370.88C371.656 55.7756 373.059 54.0675 375.09 52.7564C377.122 51.4453 379.411 50.7898 381.96 50.7898C382.44 50.7898 383.04 50.799 383.76 50.8175C384.48 50.8359 385.025 50.8636 385.394 50.9006V57.5483C385.173 57.4929 384.665 57.4098 383.871 57.299C383.095 57.1697 382.274 57.1051 381.406 57.1051C379.338 57.1051 377.491 57.5391 375.866 58.407C374.259 59.2564 372.985 60.4382 372.044 61.9524C371.12 63.4482 370.659 65.1562 370.659 67.0767V94H364.122ZM439.677 55H432.808C432.402 53.0241 431.691 51.2884 430.675 49.7926C429.678 48.2969 428.459 47.0412 427.019 46.0256C425.597 44.9915 424.018 44.2159 422.282 43.6989C420.547 43.1818 418.737 42.9233 416.853 42.9233C413.419 42.9233 410.307 43.7912 407.519 45.527C404.749 47.2628 402.542 49.8203 400.899 53.1996C399.274 56.5788 398.461 60.7244 398.461 65.6364C398.461 70.5483 399.274 74.6939 400.899 78.0732C402.542 81.4524 404.749 84.0099 407.519 85.7457C410.307 87.4815 413.419 88.3494 416.853 88.3494C418.737 88.3494 420.547 88.0909 422.282 87.5739C424.018 87.0568 425.597 86.2905 427.019 85.2749C428.459 84.2408 429.678 82.9759 430.675 81.4801C431.691 79.9659 432.402 78.2301 432.808 76.2727H439.677C439.16 79.1719 438.218 81.7663 436.852 84.0561C435.485 86.3459 433.787 88.294 431.755 89.9006C429.724 91.4886 427.444 92.6982 424.914 93.5291C422.402 94.3601 419.716 94.7756 416.853 94.7756C412.015 94.7756 407.713 93.5938 403.946 91.2301C400.179 88.8665 397.215 85.5057 395.054 81.1477C392.894 76.7898 391.814 71.6193 391.814 65.6364C391.814 59.6534 392.894 54.483 395.054 50.125C397.215 45.767 400.179 42.4062 403.946 40.0426C407.713 37.679 412.015 36.4972 416.853 36.4972C419.716 36.4972 422.402 36.9126 424.914 37.7436C427.444 38.5746 429.724 39.7933 431.755 41.3999C433.787 42.9879 435.485 44.9268 436.852 47.2166C438.218 49.4879 439.16 52.0824 439.677 55ZM456.428 68.4062V94H449.891V37.2727H456.428V58.1023H456.982C457.979 55.9048 459.475 54.1598 461.469 52.8672C463.482 51.5561 466.16 50.9006 469.502 50.9006C472.401 50.9006 474.94 51.4822 477.119 52.6456C479.298 53.7905 480.988 55.554 482.188 57.9361C483.407 60.2997 484.016 63.3097 484.016 66.9659V94H477.479V67.4091C477.479 64.0298 476.602 61.4169 474.848 59.5703C473.112 57.7053 470.702 56.7727 467.618 56.7727C465.476 56.7727 463.556 57.2251 461.857 58.13C460.177 59.0348 458.847 60.3551 457.868 62.0909C456.908 63.8267 456.428 65.9318 456.428 68.4062ZM513.259 94.8864C509.418 94.8864 506.048 93.9723 503.149 92.1442C500.268 90.3161 498.016 87.7585 496.391 84.4716C494.784 81.1847 493.981 77.3437 493.981 72.9489C493.981 68.517 494.784 64.6484 496.391 61.343C498.016 58.0376 500.268 55.4709 503.149 53.6428C506.048 51.8146 509.418 50.9006 513.259 50.9006C517.1 50.9006 520.461 51.8146 523.342 53.6428C526.241 55.4709 528.494 58.0376 530.1 61.343C531.725 64.6484 532.538 68.517 532.538 72.9489C532.538 77.3437 531.725 81.1847 530.1 84.4716C528.494 87.7585 526.241 90.3161 523.342 92.1442C520.461 93.9723 517.1 94.8864 513.259 94.8864ZM513.259 89.0142C516.177 89.0142 518.577 88.2663 520.461 86.7706C522.344 85.2749 523.739 83.3082 524.643 80.8707C525.548 78.4332 526.001 75.7926 526.001 72.9489C526.001 70.1051 525.548 67.4553 524.643 64.9993C523.739 62.5433 522.344 60.5582 520.461 59.044C518.577 57.5298 516.177 56.7727 513.259 56.7727C510.342 56.7727 507.941 57.5298 506.058 59.044C504.174 60.5582 502.78 62.5433 501.875 64.9993C500.97 67.4553 500.518 70.1051 500.518 72.9489C500.518 75.7926 500.97 78.4332 501.875 80.8707C502.78 83.3082 504.174 85.2749 506.058 86.7706C507.941 88.2663 510.342 89.0142 513.259 89.0142ZM542.516 94V51.4545H548.831V57.8807H549.275C550.05 55.7756 551.454 54.0675 553.485 52.7564C555.516 51.4453 557.806 50.7898 560.354 50.7898C560.834 50.7898 561.434 50.799 562.155 50.8175C562.875 50.8359 563.42 50.8636 563.789 50.9006V57.5483C563.567 57.4929 563.059 57.4098 562.265 57.299C561.49 57.1697 560.668 57.1051 559.8 57.1051C557.732 57.1051 555.885 57.5391 554.26 58.407C552.654 59.2564 551.38 60.4382 550.438 61.9524C549.515 63.4482 549.053 65.1562 549.053 67.0767V94H542.516ZM586.308 94.8864C582.763 94.8864 579.633 93.9908 576.918 92.1996C574.204 90.3899 572.08 87.8416 570.547 84.5547C569.015 81.2493 568.248 77.3438 568.248 72.8381C568.248 68.3693 569.015 64.4915 570.547 61.2045C572.08 57.9176 574.213 55.3786 576.946 53.5874C579.679 51.7962 582.836 50.9006 586.419 50.9006C589.189 50.9006 591.377 51.3622 592.983 52.2855C594.608 53.1903 595.846 54.2244 596.695 55.3878C597.563 56.5327 598.237 57.4744 598.717 58.2131H599.271V37.2727H605.808V94H599.493V87.4631H598.717C598.237 88.2386 597.554 89.2173 596.667 90.3991C595.781 91.5625 594.516 92.6058 592.873 93.5291C591.229 94.4339 589.041 94.8864 586.308 94.8864ZM587.194 89.0142C589.817 89.0142 592.032 88.331 593.842 86.9645C595.652 85.5795 597.028 83.6683 597.969 81.2308C598.911 78.7749 599.382 75.9403 599.382 72.7273C599.382 69.5511 598.92 66.772 597.997 64.3899C597.074 61.9893 595.707 60.1243 593.898 58.7947C592.088 57.4467 589.854 56.7727 587.194 56.7727C584.425 56.7727 582.116 57.4837 580.27 58.9055C578.442 60.3089 577.066 62.2202 576.143 64.6392C575.238 67.0398 574.785 69.7358 574.785 72.7273C574.785 75.7557 575.247 78.5071 576.17 80.9815C577.112 83.4375 578.497 85.3949 580.325 86.8537C582.172 88.294 584.461 89.0142 587.194 89.0142Z"/>
</mask>
<path d="M155.196 37.2727L172.037 85.0256H172.702L189.543 37.2727H196.744L175.915 94H168.824L147.994 37.2727H155.196ZM218.571 94.8864C214.472 94.8864 210.935 93.9815 207.962 92.1719C205.008 90.3438 202.727 87.7955 201.121 84.527C199.533 81.2401 198.739 77.4176 198.739 73.0597C198.739 68.7017 199.533 64.8608 201.121 61.5369C202.727 58.1946 204.962 55.5909 207.824 53.7259C210.705 51.8423 214.065 50.9006 217.906 50.9006C220.122 50.9006 222.31 51.2699 224.471 52.0085C226.631 52.7472 228.598 53.9474 230.371 55.6094C232.143 57.2528 233.556 59.4318 234.609 62.1463C235.661 64.8608 236.188 68.2031 236.188 72.1733V74.9432H203.392V69.2926H229.54C229.54 66.892 229.06 64.75 228.099 62.8665C227.158 60.983 225.81 59.4964 224.055 58.407C222.32 57.3175 220.27 56.7727 217.906 56.7727C215.303 56.7727 213.05 57.419 211.148 58.7116C209.264 59.9858 207.815 61.6477 206.799 63.6974C205.783 65.7472 205.276 67.9446 205.276 70.2898V74.0568C205.276 77.2699 205.83 79.9936 206.938 82.228C208.064 84.4439 209.624 86.1335 211.619 87.2969C213.613 88.4418 215.93 89.0142 218.571 89.0142C220.288 89.0142 221.839 88.7741 223.224 88.294C224.628 87.7955 225.837 87.0568 226.853 86.0781C227.869 85.081 228.653 83.8437 229.207 82.3665L235.523 84.1392C234.858 86.2812 233.741 88.1648 232.171 89.7898C230.602 91.3963 228.663 92.652 226.354 93.5568C224.046 94.4432 221.452 94.8864 218.571 94.8864ZM263.415 94.8864C259.427 94.8864 255.992 93.9446 253.112 92.0611C250.231 90.1776 248.015 87.5831 246.464 84.2777C244.913 80.9723 244.137 77.196 244.137 72.9489C244.137 68.6278 244.931 64.8146 246.519 61.5092C248.126 58.1854 250.36 55.5909 253.222 53.7259C256.103 51.8423 259.464 50.9006 263.305 50.9006C266.296 50.9006 268.992 51.4545 271.393 52.5625C273.793 53.6705 275.76 55.2216 277.293 57.2159C278.825 59.2102 279.776 61.5369 280.146 64.196H273.609C273.11 62.2571 272.002 60.5398 270.285 59.044C268.586 57.5298 266.296 56.7727 263.415 56.7727C260.867 56.7727 258.633 57.4375 256.712 58.767C254.81 60.0781 253.324 61.9339 252.253 64.3345C251.2 66.7166 250.674 69.5142 250.674 72.7273C250.674 76.0142 251.191 78.8764 252.225 81.3139C253.278 83.7514 254.755 85.6442 256.657 86.9922C258.577 88.3402 260.83 89.0142 263.415 89.0142C265.114 89.0142 266.656 88.7188 268.041 88.1278C269.426 87.5369 270.599 86.6875 271.559 85.5795C272.519 84.4716 273.202 83.142 273.609 81.5909H280.146C279.776 84.1023 278.862 86.3643 277.403 88.3771C275.963 90.3714 274.052 91.9595 271.67 93.1413C269.306 94.3047 266.555 94.8864 263.415 94.8864ZM308.205 51.4545V56.9943H286.156V51.4545H308.205ZM292.582 41.2614H299.119V81.8125C299.119 83.6591 299.387 85.044 299.923 85.9673C300.477 86.8722 301.178 87.4815 302.028 87.7955C302.896 88.0909 303.81 88.2386 304.77 88.2386C305.49 88.2386 306.081 88.2017 306.543 88.1278C307.004 88.0355 307.374 87.9616 307.651 87.9062L308.98 93.7784C308.537 93.9446 307.918 94.1108 307.124 94.277C306.33 94.4616 305.324 94.554 304.105 94.554C302.259 94.554 300.449 94.157 298.676 93.3629C296.922 92.5689 295.463 91.3594 294.3 89.7344C293.155 88.1094 292.582 86.0597 292.582 83.5852V41.2614ZM334.865 94.8864C331.024 94.8864 327.654 93.9723 324.755 92.1442C321.874 90.3161 319.621 87.7585 317.996 84.4716C316.39 81.1847 315.586 77.3437 315.586 72.9489C315.586 68.517 316.39 64.6484 317.996 61.343C319.621 58.0376 321.874 55.4709 324.755 53.6428C327.654 51.8146 331.024 50.9006 334.865 50.9006C338.706 50.9006 342.066 51.8146 344.947 53.6428C347.846 55.4709 350.099 58.0376 351.706 61.343C353.331 64.6484 354.143 68.517 354.143 72.9489C354.143 77.3437 353.331 81.1847 351.706 84.4716C350.099 87.7585 347.846 90.3161 344.947 92.1442C342.066 93.9723 338.706 94.8864 334.865 94.8864ZM334.865 89.0142C337.782 89.0142 340.183 88.2663 342.066 86.7706C343.95 85.2749 345.344 83.3082 346.249 80.8707C347.154 78.4332 347.606 75.7926 347.606 72.9489C347.606 70.1051 347.154 67.4553 346.249 64.9993C345.344 62.5433 343.95 60.5582 342.066 59.044C340.183 57.5298 337.782 56.7727 334.865 56.7727C331.947 56.7727 329.547 57.5298 327.663 59.044C325.779 60.5582 324.385 62.5433 323.48 64.9993C322.576 67.4553 322.123 70.1051 322.123 72.9489C322.123 75.7926 322.576 78.4332 323.48 80.8707C324.385 83.3082 325.779 85.2749 327.663 86.7706C329.547 88.2663 331.947 89.0142 334.865 89.0142ZM364.122 94V51.4545H370.437V57.8807H370.88C371.656 55.7756 373.059 54.0675 375.09 52.7564C377.122 51.4453 379.411 50.7898 381.96 50.7898C382.44 50.7898 383.04 50.799 383.76 50.8175C384.48 50.8359 385.025 50.8636 385.394 50.9006V57.5483C385.173 57.4929 384.665 57.4098 383.871 57.299C383.095 57.1697 382.274 57.1051 381.406 57.1051C379.338 57.1051 377.491 57.5391 375.866 58.407C374.259 59.2564 372.985 60.4382 372.044 61.9524C371.12 63.4482 370.659 65.1562 370.659 67.0767V94H364.122ZM439.677 55H432.808C432.402 53.0241 431.691 51.2884 430.675 49.7926C429.678 48.2969 428.459 47.0412 427.019 46.0256C425.597 44.9915 424.018 44.2159 422.282 43.6989C420.547 43.1818 418.737 42.9233 416.853 42.9233C413.419 42.9233 410.307 43.7912 407.519 45.527C404.749 47.2628 402.542 49.8203 400.899 53.1996C399.274 56.5788 398.461 60.7244 398.461 65.6364C398.461 70.5483 399.274 74.6939 400.899 78.0732C402.542 81.4524 404.749 84.0099 407.519 85.7457C410.307 87.4815 413.419 88.3494 416.853 88.3494C418.737 88.3494 420.547 88.0909 422.282 87.5739C424.018 87.0568 425.597 86.2905 427.019 85.2749C428.459 84.2408 429.678 82.9759 430.675 81.4801C431.691 79.9659 432.402 78.2301 432.808 76.2727H439.677C439.16 79.1719 438.218 81.7663 436.852 84.0561C435.485 86.3459 433.787 88.294 431.755 89.9006C429.724 91.4886 427.444 92.6982 424.914 93.5291C422.402 94.3601 419.716 94.7756 416.853 94.7756C412.015 94.7756 407.713 93.5938 403.946 91.2301C400.179 88.8665 397.215 85.5057 395.054 81.1477C392.894 76.7898 391.814 71.6193 391.814 65.6364C391.814 59.6534 392.894 54.483 395.054 50.125C397.215 45.767 400.179 42.4062 403.946 40.0426C407.713 37.679 412.015 36.4972 416.853 36.4972C419.716 36.4972 422.402 36.9126 424.914 37.7436C427.444 38.5746 429.724 39.7933 431.755 41.3999C433.787 42.9879 435.485 44.9268 436.852 47.2166C438.218 49.4879 439.16 52.0824 439.677 55ZM456.428 68.4062V94H449.891V37.2727H456.428V58.1023H456.982C457.979 55.9048 459.475 54.1598 461.469 52.8672C463.482 51.5561 466.16 50.9006 469.502 50.9006C472.401 50.9006 474.94 51.4822 477.119 52.6456C479.298 53.7905 480.988 55.554 482.188 57.9361C483.407 60.2997 484.016 63.3097 484.016 66.9659V94H477.479V67.4091C477.479 64.0298 476.602 61.4169 474.848 59.5703C473.112 57.7053 470.702 56.7727 467.618 56.7727C465.476 56.7727 463.556 57.2251 461.857 58.13C460.177 59.0348 458.847 60.3551 457.868 62.0909C456.908 63.8267 456.428 65.9318 456.428 68.4062ZM513.259 94.8864C509.418 94.8864 506.048 93.9723 503.149 92.1442C500.268 90.3161 498.016 87.7585 496.391 84.4716C494.784 81.1847 493.981 77.3437 493.981 72.9489C493.981 68.517 494.784 64.6484 496.391 61.343C498.016 58.0376 500.268 55.4709 503.149 53.6428C506.048 51.8146 509.418 50.9006 513.259 50.9006C517.1 50.9006 520.461 51.8146 523.342 53.6428C526.241 55.4709 528.494 58.0376 530.1 61.343C531.725 64.6484 532.538 68.517 532.538 72.9489C532.538 77.3437 531.725 81.1847 530.1 84.4716C528.494 87.7585 526.241 90.3161 523.342 92.1442C520.461 93.9723 517.1 94.8864 513.259 94.8864ZM513.259 89.0142C516.177 89.0142 518.577 88.2663 520.461 86.7706C522.344 85.2749 523.739 83.3082 524.643 80.8707C525.548 78.4332 526.001 75.7926 526.001 72.9489C526.001 70.1051 525.548 67.4553 524.643 64.9993C523.739 62.5433 522.344 60.5582 520.461 59.044C518.577 57.5298 516.177 56.7727 513.259 56.7727C510.342 56.7727 507.941 57.5298 506.058 59.044C504.174 60.5582 502.78 62.5433 501.875 64.9993C500.97 67.4553 500.518 70.1051 500.518 72.9489C500.518 75.7926 500.97 78.4332 501.875 80.8707C502.78 83.3082 504.174 85.2749 506.058 86.7706C507.941 88.2663 510.342 89.0142 513.259 89.0142ZM542.516 94V51.4545H548.831V57.8807H549.275C550.05 55.7756 551.454 54.0675 553.485 52.7564C555.516 51.4453 557.806 50.7898 560.354 50.7898C560.834 50.7898 561.434 50.799 562.155 50.8175C562.875 50.8359 563.42 50.8636 563.789 50.9006V57.5483C563.567 57.4929 563.059 57.4098 562.265 57.299C561.49 57.1697 560.668 57.1051 559.8 57.1051C557.732 57.1051 555.885 57.5391 554.26 58.407C552.654 59.2564 551.38 60.4382 550.438 61.9524C549.515 63.4482 549.053 65.1562 549.053 67.0767V94H542.516ZM586.308 94.8864C582.763 94.8864 579.633 93.9908 576.918 92.1996C574.204 90.3899 572.08 87.8416 570.547 84.5547C569.015 81.2493 568.248 77.3438 568.248 72.8381C568.248 68.3693 569.015 64.4915 570.547 61.2045C572.08 57.9176 574.213 55.3786 576.946 53.5874C579.679 51.7962 582.836 50.9006 586.419 50.9006C589.189 50.9006 591.377 51.3622 592.983 52.2855C594.608 53.1903 595.846 54.2244 596.695 55.3878C597.563 56.5327 598.237 57.4744 598.717 58.2131H599.271V37.2727H605.808V94H599.493V87.4631H598.717C598.237 88.2386 597.554 89.2173 596.667 90.3991C595.781 91.5625 594.516 92.6058 592.873 93.5291C591.229 94.4339 589.041 94.8864 586.308 94.8864ZM587.194 89.0142C589.817 89.0142 592.032 88.331 593.842 86.9645C595.652 85.5795 597.028 83.6683 597.969 81.2308C598.911 78.7749 599.382 75.9403 599.382 72.7273C599.382 69.5511 598.92 66.772 597.997 64.3899C597.074 61.9893 595.707 60.1243 593.898 58.7947C592.088 57.4467 589.854 56.7727 587.194 56.7727C584.425 56.7727 582.116 57.4837 580.27 58.9055C578.442 60.3089 577.066 62.2202 576.143 64.6392C575.238 67.0398 574.785 69.7358 574.785 72.7273C574.785 75.7557 575.247 78.5071 576.17 80.9815C577.112 83.4375 578.497 85.3949 580.325 86.8537C582.172 88.294 584.461 89.0142 587.194 89.0142Z" fill="#2A2A2A"/>
<path d="M155.196 37.2727L156.139 36.9401L155.904 36.2727H155.196V37.2727ZM172.037 85.0256L171.094 85.3582L171.329 86.0256H172.037V85.0256ZM172.702 85.0256V86.0256H173.409L173.645 85.3582L172.702 85.0256ZM189.543 37.2727V36.2727H188.835L188.6 36.9401L189.543 37.2727ZM196.744 37.2727L197.683 37.6174L198.177 36.2727H196.744V37.2727ZM175.915 94V95H176.613L176.853 94.3447L175.915 94ZM168.824 94L167.885 94.3447L168.126 95H168.824V94ZM147.994 37.2727V36.2727H146.562L147.056 37.6174L147.994 37.2727ZM154.253 37.6053L171.094 85.3582L172.98 84.693L156.139 36.9401L154.253 37.6053ZM172.037 86.0256H172.702V84.0256H172.037V86.0256ZM173.645 85.3582L190.486 37.6053L188.6 36.9401L171.759 84.693L173.645 85.3582ZM189.543 38.2727H196.744V36.2727H189.543V38.2727ZM195.806 36.928L174.976 93.6553L176.853 94.3447L197.683 37.6174L195.806 36.928ZM175.915 93H168.824V95H175.915V93ZM169.763 93.6553L148.933 36.928L147.056 37.6174L167.885 94.3447L169.763 93.6553ZM147.994 38.2727H155.196V36.2727H147.994V38.2727ZM207.962 92.1719L207.436 93.0223L207.442 93.0261L207.962 92.1719ZM201.121 84.527L200.22 84.962L200.223 84.9681L201.121 84.527ZM201.121 61.5369L200.219 61.1037L200.218 61.1058L201.121 61.5369ZM207.824 53.7258L208.37 54.5637L208.371 54.5628L207.824 53.7258ZM224.471 52.0085L224.794 51.0623L224.471 52.0085ZM230.371 55.6094L229.687 56.3389L229.691 56.3427L230.371 55.6094ZM234.609 62.1463L235.541 61.7848L234.609 62.1463ZM236.188 74.9432V75.9432H237.188V74.9432H236.188ZM203.392 74.9432H202.392V75.9432H203.392V74.9432ZM203.392 69.2926V68.2926H202.392V69.2926H203.392ZM229.54 69.2926V70.2926H230.54V69.2926H229.54ZM228.099 62.8665L227.205 63.3137L227.209 63.3207L228.099 62.8665ZM224.055 58.407L223.524 59.254L223.528 59.2565L224.055 58.407ZM211.148 58.7116L211.708 59.5399L211.71 59.5387L211.148 58.7116ZM206.799 63.6974L205.903 63.2535L206.799 63.6974ZM206.938 82.228L206.042 82.6723L206.046 82.6811L206.938 82.228ZM211.619 87.2969L211.115 88.1607L211.121 88.1641L211.619 87.2969ZM223.224 88.294L223.552 89.2389L223.559 89.2363L223.224 88.294ZM226.853 86.0781L227.547 86.7982L227.554 86.7917L226.853 86.0781ZM229.207 82.3665L229.478 81.4037L228.593 81.1555L228.271 82.0154L229.207 82.3665ZM235.523 84.1392L236.478 84.4356L236.782 83.4541L235.793 83.1764L235.523 84.1392ZM232.171 89.7898L232.886 90.4886L232.89 90.4845L232.171 89.7898ZM226.354 93.5568L226.713 94.4904L226.719 94.4878L226.354 93.5568ZM218.571 93.8864C214.622 93.8864 211.273 93.0162 208.482 91.3177L207.442 93.0261C210.598 94.9469 214.321 95.8864 218.571 95.8864V93.8864ZM208.489 91.3215C205.702 89.5971 203.546 87.1943 202.018 84.0859L200.223 84.9681C201.908 88.3966 204.314 91.0904 207.436 93.0223L208.489 91.3215ZM202.021 84.092C200.51 80.9645 199.739 77.2958 199.739 73.0597H197.739C197.739 77.5394 198.555 81.5156 200.22 84.962L202.021 84.092ZM199.739 73.0597C199.739 68.8238 200.51 65.1348 202.023 61.968L200.218 61.1058C198.555 64.5868 197.739 68.5796 197.739 73.0597H199.739ZM202.022 61.9701C203.556 58.778 205.674 56.3204 208.37 54.5637L207.278 52.888C204.249 54.8614 201.898 57.6112 200.219 61.1037L202.022 61.9701ZM208.371 54.5628C211.071 52.7978 214.236 51.9006 217.906 51.9006V49.9006C213.894 49.9006 210.338 50.8869 207.277 52.8889L208.371 54.5628ZM217.906 51.9006C220.009 51.9006 222.088 52.2506 224.147 52.9548L224.794 51.0623C222.533 50.2892 220.236 49.9006 217.906 49.9006V51.9006ZM224.147 52.9548C226.165 53.6446 228.011 54.7676 229.687 56.3389L231.055 54.8798C229.185 53.1273 227.098 51.8497 224.794 51.0623L224.147 52.9548ZM229.691 56.3427C231.332 57.864 232.668 59.9063 233.676 62.5078L235.541 61.7848C234.445 58.9573 232.955 56.6416 231.051 54.876L229.691 56.3427ZM233.676 62.5078C234.671 65.0734 235.188 68.2847 235.188 72.1733H237.188C237.188 68.1215 236.651 64.6481 235.541 61.7848L233.676 62.5078ZM235.188 72.1733V74.9432H237.188V72.1733H235.188ZM236.188 73.9432H203.392V75.9432H236.188V73.9432ZM204.392 74.9432V69.2926H202.392V74.9432H204.392ZM203.392 70.2926H229.54V68.2926H203.392V70.2926ZM230.54 69.2926C230.54 66.7557 230.031 64.4545 228.99 62.4123L227.209 63.3207C228.088 65.0455 228.54 67.0284 228.54 69.2926H230.54ZM228.994 62.4193C227.971 60.3737 226.498 58.7465 224.583 57.5575L223.528 59.2565C225.122 60.2463 226.344 61.5922 227.205 63.3137L228.994 62.4193ZM224.587 57.56C222.669 56.3559 220.429 55.7727 217.906 55.7727V57.7727C220.111 57.7727 221.971 58.279 223.524 59.2539L224.587 57.56ZM217.906 55.7727C215.13 55.7727 212.675 56.4648 210.586 57.8846L211.71 59.5387C213.425 58.3733 215.476 57.7727 217.906 57.7727V55.7727ZM210.587 57.8834C208.56 59.255 206.995 61.0497 205.903 63.2535L207.695 64.1414C208.634 62.2457 209.969 60.7166 211.708 59.5399L210.587 57.8834ZM205.903 63.2535C204.817 65.4447 204.276 67.7946 204.276 70.2898H206.276C206.276 68.0946 206.75 66.0496 207.695 64.1414L205.903 63.2535ZM204.276 70.2898V74.0568H206.276V70.2898H204.276ZM204.276 74.0568C204.276 77.3811 204.848 80.2659 206.042 82.6722L207.833 81.7837C206.811 79.7214 206.276 77.1587 206.276 74.0568H204.276ZM206.046 82.6811C207.253 85.0546 208.942 86.893 211.115 88.1607L212.122 86.4331C210.307 85.374 208.875 83.8332 207.829 81.7748L206.046 82.6811ZM211.121 88.1641C213.288 89.4082 215.782 90.0142 218.571 90.0142V88.0142C216.079 88.0142 213.938 87.4753 212.116 86.4296L211.121 88.1641ZM218.571 90.0142C220.381 90.0142 222.045 89.7612 223.552 89.2389L222.897 87.3492C221.634 87.7871 220.196 88.0142 218.571 88.0142V90.0142ZM223.559 89.2363C225.089 88.6928 226.423 87.8812 227.547 86.7982L226.159 85.358C225.252 86.2325 224.167 86.8981 222.89 87.3517L223.559 89.2363ZM227.554 86.7917C228.684 85.6817 229.544 84.3165 230.144 82.7176L228.271 82.0154C227.763 83.371 227.053 84.4802 226.152 85.3646L227.554 86.7917ZM228.937 83.3293L235.252 85.102L235.793 83.1764L229.478 81.4037L228.937 83.3293ZM234.568 83.8428C233.95 85.8343 232.914 87.5817 231.452 89.095L232.89 90.4845C234.568 88.7479 235.766 86.7282 236.478 84.4356L234.568 83.8428ZM231.456 89.0909C229.995 90.586 228.18 91.7673 225.989 92.6258L226.719 94.4878C229.146 93.5367 231.208 92.2066 232.886 90.4886L231.456 89.0909ZM225.996 92.6233C223.819 93.4591 221.349 93.8864 218.571 93.8864V95.8864C221.554 95.8864 224.273 95.4273 226.713 94.4904L225.996 92.6233ZM253.112 92.0611L252.564 92.898L253.112 92.0611ZM246.519 61.5092L245.619 61.0741L245.618 61.0762L246.519 61.5092ZM253.222 53.7258L253.768 54.5637L253.77 54.5628L253.222 53.7258ZM277.293 57.2159L278.086 56.6066L277.293 57.2159ZM280.146 64.196V65.196H281.294L281.136 64.0585L280.146 64.196ZM273.609 64.196L272.64 64.4451L272.833 65.196H273.609V64.196ZM270.285 59.044L269.619 59.7906L269.628 59.7981L270.285 59.044ZM256.712 58.767L257.28 59.5904L257.282 59.5892L256.712 58.767ZM252.253 64.3345L251.34 63.9271L251.338 63.9304L252.253 64.3345ZM252.225 81.3139L251.305 81.7045L251.307 81.7104L252.225 81.3139ZM256.657 86.9922L256.079 87.8081L256.082 87.8107L256.657 86.9922ZM268.041 88.1278L267.649 87.2081L268.041 88.1278ZM271.559 85.5795L272.315 86.2345L271.559 85.5795ZM273.609 81.5909V80.5909H272.837L272.641 81.3376L273.609 81.5909ZM280.146 81.5909L281.135 81.7364L281.303 80.5909H280.146V81.5909ZM277.403 88.3771L276.594 87.7903L276.593 87.7916L277.403 88.3771ZM271.67 93.1413L272.111 94.0386L272.114 94.0371L271.67 93.1413ZM263.415 93.8864C259.59 93.8864 256.352 92.9852 253.659 91.2241L252.564 92.898C255.632 94.904 259.264 95.8864 263.415 95.8864V93.8864ZM253.659 91.2241C250.943 89.4484 248.846 87.001 247.369 83.8529L245.559 84.7025C247.183 88.1652 249.519 90.9067 252.564 92.898L253.659 91.2241ZM247.369 83.8529C245.89 80.7004 245.137 77.073 245.137 72.9489H243.137C243.137 77.319 243.936 81.2442 245.559 84.7025L247.369 83.8529ZM245.137 72.9489C245.137 68.7512 245.908 65.0905 247.421 61.9423L245.618 61.0762C243.954 64.5387 243.137 68.5045 243.137 72.9489H245.137ZM247.42 61.9444C248.953 58.7708 251.071 56.3213 253.768 54.5637L252.676 52.888C249.649 54.8605 247.298 57.5999 245.619 61.0741L247.42 61.9444ZM253.77 54.5628C256.469 52.7978 259.635 51.9006 263.305 51.9006V49.9006C259.293 49.9006 255.737 50.8869 252.675 52.8889L253.77 54.5628ZM263.305 51.9006C266.171 51.9006 268.721 52.4307 270.974 53.4705L271.812 51.6545C269.264 50.4784 266.422 49.9006 263.305 49.9006V51.9006ZM270.974 53.4705C273.235 54.5142 275.071 55.9659 276.5 57.8253L278.086 56.6066C276.449 54.4773 274.352 52.8267 271.812 51.6545L270.974 53.4705ZM276.5 57.8253C277.92 59.6728 278.808 61.8343 279.155 64.3336L281.136 64.0585C280.745 61.2396 279.731 58.7476 278.086 56.6066L276.5 57.8253ZM280.146 63.196H273.609V65.196H280.146V63.196ZM274.577 63.947C274.021 61.7859 272.79 59.8997 270.942 58.29L269.628 59.7981C271.214 61.1799 272.199 62.7283 272.64 64.4451L274.577 63.947ZM270.95 58.2975C269.023 56.5801 266.474 55.7727 263.415 55.7727V57.7727C266.118 57.7727 268.149 58.4795 269.619 59.7905L270.95 58.2975ZM263.415 55.7727C260.683 55.7727 258.246 56.489 256.143 57.9449L257.282 59.5892C259.02 58.386 261.051 57.7727 263.415 57.7727V55.7727ZM256.145 57.9437C254.072 59.3728 252.475 61.3824 251.34 63.9271L253.166 64.742C254.173 62.4855 255.549 60.7834 257.28 59.5904L256.145 57.9437ZM251.338 63.9304C250.218 66.4659 249.674 69.4067 249.674 72.7273H251.674C251.674 69.6217 252.183 66.9674 253.168 64.7387L251.338 63.9304ZM249.674 72.7273C249.674 76.117 250.207 79.1175 251.305 81.7045L253.146 80.9234C252.175 78.6354 251.674 75.9114 251.674 72.7273H249.674ZM251.307 81.7104C252.422 84.2923 254.007 86.3399 256.079 87.8081L257.235 86.1763C255.503 84.9484 254.133 83.2106 253.143 80.9175L251.307 81.7104ZM256.082 87.8107C258.188 89.2888 260.647 90.0142 263.415 90.0142V88.0142C261.014 88.0142 258.967 87.3916 257.231 86.1737L256.082 87.8107ZM263.415 90.0142C265.232 90.0142 266.91 89.6978 268.434 89.0476L267.649 87.2081C266.403 87.7397 264.997 88.0142 263.415 88.0142V90.0142ZM268.434 89.0476C269.954 88.3988 271.252 87.4603 272.315 86.2345L270.803 84.9246C269.945 85.9147 268.898 86.6751 267.649 87.2081L268.434 89.0476ZM272.315 86.2345C273.384 85.0001 274.135 83.5296 274.576 81.8443L272.641 81.3376C272.27 82.7545 271.654 83.9431 270.803 84.9246L272.315 86.2345ZM273.609 82.5909H280.146V80.5909H273.609V82.5909ZM279.156 81.4454C278.81 83.8008 277.956 85.9108 276.594 87.7903L278.213 88.964C279.769 86.8179 280.743 84.4037 281.135 81.7364L279.156 81.4454ZM276.593 87.7916C275.255 89.6438 273.474 91.1299 271.225 92.2455L272.114 94.0371C274.63 92.7891 276.671 91.0991 278.214 88.9626L276.593 87.7916ZM271.228 92.2441C269.026 93.3281 266.431 93.8864 263.415 93.8864V95.8864C266.679 95.8864 269.586 95.2813 272.111 94.0386L271.228 92.2441ZM308.205 51.4545H309.205V50.4545H308.205V51.4545ZM308.205 56.9943V57.9943H309.205V56.9943H308.205ZM286.156 56.9943H285.156V57.9943H286.156V56.9943ZM286.156 51.4545V50.4545H285.156V51.4545H286.156ZM292.582 41.2614V40.2614H291.582V41.2614H292.582ZM299.119 41.2614H300.119V40.2614H299.119V41.2614ZM299.923 85.9673L299.058 86.469L299.064 86.4793L299.07 86.4895L299.923 85.9673ZM302.028 87.7955L301.681 88.7335L301.693 88.7379L301.705 88.7421L302.028 87.7955ZM306.543 88.1278L306.701 89.1153L306.72 89.1122L306.739 89.1084L306.543 88.1278ZM307.651 87.9062L308.626 87.6854L308.411 86.7344L307.454 86.9257L307.651 87.9062ZM308.98 93.7784L309.331 94.7147L310.148 94.4084L309.955 93.5576L308.98 93.7784ZM307.124 94.277L306.919 93.2982L306.909 93.3005L306.898 93.303L307.124 94.277ZM298.676 93.3629L298.264 94.274L298.267 94.2756L298.676 93.3629ZM294.3 89.7344L293.482 90.3103L293.487 90.3165L294.3 89.7344ZM307.205 51.4545V56.9943H309.205V51.4545H307.205ZM308.205 55.9943H286.156V57.9943H308.205V55.9943ZM287.156 56.9943V51.4545H285.156V56.9943H287.156ZM286.156 52.4545H308.205V50.4545H286.156V52.4545ZM292.582 42.2614H299.119V40.2614H292.582V42.2614ZM298.119 41.2614V81.8125H300.119V41.2614H298.119ZM298.119 81.8125C298.119 83.723 298.391 85.3191 299.058 86.469L300.788 85.4656C300.384 84.769 300.119 83.5952 300.119 81.8125H298.119ZM299.07 86.4895C299.72 87.5516 300.586 88.3288 301.681 88.7335L302.374 86.8575C301.77 86.6342 301.233 86.1927 300.775 85.4452L299.07 86.4895ZM301.705 88.7421C302.682 89.0745 303.705 89.2386 304.77 89.2386V87.2386C303.914 87.2386 303.109 87.1073 302.35 86.8488L301.705 88.7421ZM304.77 89.2386C305.518 89.2386 306.167 89.2007 306.701 89.1153L306.385 87.1404C305.995 87.2027 305.462 87.2386 304.77 87.2386V89.2386ZM306.739 89.1084C307.2 89.0161 307.57 88.9422 307.847 88.8868L307.454 86.9257C307.177 86.9811 306.808 87.0549 306.346 87.1473L306.739 89.1084ZM306.675 88.1271L308.005 93.9992L309.955 93.5576L308.626 87.6854L306.675 88.1271ZM308.629 92.8421C308.255 92.9822 307.693 93.1362 306.919 93.2982L307.329 95.2558C308.143 95.0854 308.819 94.907 309.331 94.7147L308.629 92.8421ZM306.898 93.303C306.205 93.4641 305.281 93.554 304.105 93.554V95.554C305.367 95.554 306.456 95.4592 307.351 95.251L306.898 93.303ZM304.105 93.554C302.407 93.554 300.736 93.1898 299.085 92.4503L298.267 94.2756C300.162 95.1241 302.11 95.554 304.105 95.554V93.554ZM299.089 92.4519C297.501 91.7332 296.178 90.64 295.113 89.1523L293.487 90.3165C294.748 92.0788 296.343 93.4046 298.264 94.2739L299.089 92.4519ZM295.117 89.1584C294.117 87.7393 293.582 85.9044 293.582 83.5852H291.582C291.582 86.2149 292.192 88.4794 293.482 90.3103L295.117 89.1584ZM293.582 83.5852V41.2614H291.582V83.5852H293.582ZM324.755 92.1442L324.219 92.9885L324.221 92.9901L324.755 92.1442ZM317.996 84.4716L317.098 84.9107L317.1 84.9148L317.996 84.4716ZM317.996 61.343L317.099 60.9018L317.097 60.9059L317.996 61.343ZM324.755 53.6428L324.221 52.7969L324.219 52.7984L324.755 53.6428ZM344.947 53.6428L344.411 54.4871L344.414 54.4886L344.947 53.6428ZM351.706 61.343L350.806 61.7802L350.808 61.7842L351.706 61.343ZM351.706 84.4716L350.809 84.0284L350.807 84.0325L351.706 84.4716ZM344.947 92.1442L344.414 91.2983L344.411 91.2998L344.947 92.1442ZM342.066 86.7706L341.445 85.9875L342.066 86.7706ZM346.249 80.8707L347.186 81.2187L346.249 80.8707ZM346.249 64.9993L347.187 64.6536L346.249 64.9993ZM342.066 59.044L342.693 58.2647L342.066 59.044ZM327.663 59.044L327.036 58.2647L327.663 59.044ZM323.48 64.9993L322.542 64.6536L323.48 64.9993ZM323.48 80.8707L322.543 81.2187L323.48 80.8707ZM327.663 86.7706L328.285 85.9875L327.663 86.7706ZM334.865 93.8864C331.189 93.8864 328.009 93.0139 325.288 91.2983L324.221 92.9901C327.299 94.9307 330.858 95.8864 334.865 95.8864V93.8864ZM325.29 91.2998C322.576 89.5772 320.443 87.1639 318.893 84.0284L317.1 84.9148C318.8 88.3532 321.172 91.0549 324.219 92.9885L325.29 91.2998ZM318.895 84.0325C317.367 80.9071 316.586 77.2218 316.586 72.9489H314.586C314.586 77.4657 315.412 81.4622 317.098 84.9107L318.895 84.0325ZM316.586 72.9489C316.586 68.6377 317.367 64.9242 318.895 61.7802L317.097 60.9059C315.412 64.3727 314.586 68.3963 314.586 72.9489H316.586ZM318.894 61.7842C320.444 58.6303 322.577 56.2088 325.29 54.4871L324.219 52.7984C321.17 54.7329 318.798 57.445 317.099 60.9019L318.894 61.7842ZM325.288 54.4886C328.009 52.773 331.189 51.9006 334.865 51.9006V49.9006C330.858 49.9006 327.299 50.8562 324.221 52.7969L325.288 54.4886ZM334.865 51.9006C338.54 51.9006 341.71 52.773 344.411 54.4871L345.483 52.7984C342.422 50.8562 338.871 49.9006 334.865 49.9006V51.9006ZM344.414 54.4886C347.144 56.2101 349.275 58.6299 350.806 61.7802L352.605 60.9059C350.923 57.4454 348.549 54.7317 345.48 52.7969L344.414 54.4886ZM350.808 61.7842C352.353 64.9272 353.143 68.6393 353.143 72.9489H355.143C355.143 68.3948 354.308 64.3697 352.603 60.9019L350.808 61.7842ZM353.143 72.9489C353.143 77.2202 352.354 80.904 350.809 84.0284L352.602 84.9148C354.307 81.4653 355.143 77.4673 355.143 72.9489H353.143ZM350.807 84.0325C349.276 87.1643 347.145 89.576 344.414 91.2983L345.48 92.9901C348.547 91.0561 350.922 88.3528 352.604 84.9107L350.807 84.0325ZM344.411 91.2998C341.71 93.0139 338.54 93.8864 334.865 93.8864V95.8864C338.871 95.8864 342.422 94.9307 345.483 92.9885L344.411 91.2998ZM334.865 90.0142C337.958 90.0142 340.593 89.2179 342.688 87.5537L341.445 85.9875C339.773 87.3147 337.606 88.0142 334.865 88.0142V90.0142ZM342.688 87.5537C344.726 85.9353 346.223 83.813 347.186 81.2187L345.311 80.5227C344.465 82.8035 343.174 84.6144 341.445 85.9875L342.688 87.5537ZM347.186 81.2187C348.136 78.6599 348.606 75.9003 348.606 72.9489H346.606C346.606 75.685 346.171 78.2066 345.311 80.5227L347.186 81.2187ZM348.606 72.9489C348.606 69.9974 348.136 67.2294 347.187 64.6536L345.311 65.345C346.171 67.6811 346.606 70.2129 346.606 72.9489H348.606ZM347.187 64.6536C346.225 62.0421 344.729 59.9019 342.693 58.2647L341.44 59.8234C343.17 61.2146 344.463 63.0446 345.311 65.345L347.187 64.6536ZM342.693 58.2647C340.597 56.5798 337.961 55.7727 334.865 55.7727V57.7727C337.603 57.7727 339.769 58.4799 341.44 59.8234L342.693 58.2647ZM334.865 55.7727C331.768 55.7727 329.132 56.5798 327.036 58.2647L328.29 59.8234C329.961 58.4799 332.126 57.7727 334.865 57.7727V55.7727ZM327.036 58.2647C325 59.9019 323.504 62.0421 322.542 64.6536L324.419 65.345C325.266 63.0446 326.559 61.2146 328.29 59.8234L327.036 58.2647ZM322.542 64.6536C321.593 67.2294 321.123 69.9974 321.123 72.9489H323.123C323.123 70.2129 323.558 67.6811 324.419 65.345L322.542 64.6536ZM321.123 72.9489C321.123 75.9003 321.593 78.6599 322.543 81.2187L324.418 80.5227C323.558 78.2066 323.123 75.685 323.123 72.9489H321.123ZM322.543 81.2187C323.506 83.813 325.003 85.9353 327.041 87.5537L328.285 85.9875C326.556 84.6144 325.265 82.8035 324.418 80.5227L322.543 81.2187ZM327.041 87.5537C329.137 89.2179 331.771 90.0142 334.865 90.0142V88.0142C332.123 88.0142 329.956 87.3147 328.285 85.9875L327.041 87.5537ZM364.122 94H363.122V95H364.122V94ZM364.122 51.4545V50.4545H363.122V51.4545H364.122ZM370.437 51.4545H371.437V50.4545H370.437V51.4545ZM370.437 57.8807H369.437V58.8807H370.437V57.8807ZM370.88 57.8807V58.8807H371.577L371.818 58.2264L370.88 57.8807ZM375.09 52.7564L374.548 51.9162V51.9162L375.09 52.7564ZM385.394 50.9006H386.394V49.9956L385.494 49.9055L385.394 50.9006ZM385.394 57.5483L385.152 58.5184L386.394 58.8291V57.5483H385.394ZM383.871 57.299L383.707 58.2854L383.72 58.2876L383.733 58.2894L383.871 57.299ZM375.866 58.407L376.333 59.291L376.337 59.289L375.866 58.407ZM372.044 61.9524L371.194 61.4243L371.193 61.4271L372.044 61.9524ZM370.659 94V95H371.659V94H370.659ZM365.122 94V51.4545H363.122V94H365.122ZM364.122 52.4545H370.437V50.4545H364.122V52.4545ZM369.437 51.4545V57.8807H371.437V51.4545H369.437ZM370.437 58.8807H370.88V56.8807H370.437V58.8807ZM371.818 58.2264C372.513 56.3408 373.769 54.7998 375.633 53.5966L374.548 51.9162C372.35 53.3351 370.798 55.2103 369.942 57.535L371.818 58.2264ZM375.633 53.5966C377.493 52.3956 379.593 51.7898 381.96 51.7898V49.7898C379.23 49.7898 376.75 50.495 374.548 51.9162L375.633 53.5966ZM381.96 51.7898C382.428 51.7898 383.019 51.7988 383.734 51.8171L383.786 49.8178C383.061 49.7992 382.451 49.7898 381.96 49.7898V51.7898ZM383.734 51.8171C384.448 51.8354 384.963 51.8624 385.295 51.8956L385.494 49.9055C385.087 49.8648 384.512 49.8364 383.786 49.8178L383.734 51.8171ZM384.394 50.9006V57.5483H386.394V50.9006H384.394ZM385.637 56.5782C385.353 56.5072 384.788 56.4173 384.009 56.3086L383.733 58.2894C384.542 58.4023 384.992 58.4786 385.152 58.5184L385.637 56.5782ZM384.035 56.3126C383.2 56.1734 382.323 56.1051 381.406 56.1051V58.1051C382.224 58.1051 382.991 58.1661 383.707 58.2854L384.035 56.3126ZM381.406 56.1051C379.194 56.1051 377.182 56.5705 375.395 57.5249L376.337 59.289C377.8 58.5077 379.481 58.1051 381.406 58.1051V56.1051ZM375.399 57.5229C373.639 58.4534 372.231 59.7568 371.194 61.4243L372.893 62.4805C373.739 61.1197 374.88 60.0593 376.333 59.291L375.399 57.5229ZM371.193 61.4271C370.163 63.0952 369.659 64.9885 369.659 67.0767H371.659C371.659 65.324 372.078 63.8011 372.894 62.4777L371.193 61.4271ZM369.659 67.0767V94H371.659V67.0767H369.659ZM370.659 93H364.122V95H370.659V93ZM439.677 55V56H440.87L440.662 54.8255L439.677 55ZM432.808 55L431.828 55.2014L431.993 56H432.808V55ZM430.675 49.7926L429.843 50.3473L429.848 50.3544L430.675 49.7926ZM427.019 46.0256L426.431 46.8343L426.437 46.8386L426.443 46.8428L427.019 46.0256ZM422.282 43.6989L421.997 44.6572L422.282 43.6989ZM407.519 45.527L406.99 44.678L406.988 44.6796L407.519 45.527ZM400.899 53.1996L399.999 52.7622L399.998 52.7662L400.899 53.1996ZM400.899 78.0732L399.998 78.5065L400 78.5105L400.899 78.0732ZM407.519 85.7457L406.988 86.5931L406.99 86.5947L407.519 85.7457ZM422.282 87.5739L421.997 86.6155L422.282 87.5739ZM427.019 85.2749L427.6 86.0886L427.602 86.0872L427.019 85.2749ZM430.675 81.4801L429.845 80.9231L429.843 80.9254L430.675 81.4801ZM432.808 76.2727V75.2727H431.994L431.829 76.0695L432.808 76.2727ZM439.677 76.2727L440.662 76.4483L440.871 75.2727H439.677V76.2727ZM436.852 84.0561L435.993 83.5436L436.852 84.0561ZM431.755 89.9006L432.371 90.6884L432.376 90.6849L431.755 89.9006ZM424.914 93.5291L424.602 92.5791L424.6 92.5797L424.914 93.5291ZM403.946 91.2301L403.414 92.0772L403.946 91.2301ZM395.054 81.1477L395.95 80.7036L395.054 81.1477ZM424.914 37.7436L424.6 38.693L424.602 38.6937L424.914 37.7436ZM431.755 41.3999L431.135 42.1842L431.139 42.1877L431.755 41.3999ZM436.852 47.2166L435.993 47.7291L435.995 47.7321L436.852 47.2166ZM439.677 54H432.808V56H439.677V54ZM433.787 54.7986C433.358 52.7087 432.6 50.8475 431.502 49.2309L429.848 50.3544C430.781 51.7292 431.446 53.3396 431.828 55.2014L433.787 54.7986ZM431.507 49.2379C430.443 47.6417 429.138 46.2964 427.595 45.2083L426.443 46.8428C427.78 47.786 428.913 48.952 429.843 50.3473L431.507 49.2379ZM427.607 45.2168C426.091 44.114 424.409 43.2889 422.568 42.7405L421.997 44.6572C423.627 45.1429 425.103 45.8689 426.431 46.8343L427.607 45.2168ZM422.568 42.7405C420.736 42.1947 418.83 41.9233 416.853 41.9233V43.9233C418.644 43.9233 420.357 44.1689 421.997 44.6572L422.568 42.7405ZM416.853 41.9233C413.241 41.9233 409.945 42.8389 406.99 44.678L408.047 46.3759C410.67 44.7435 413.597 43.9233 416.853 43.9233V41.9233ZM406.988 44.6796C404.037 46.5291 401.712 49.2402 400 52.7622L401.798 53.6369C403.372 50.4004 405.461 47.9965 408.05 46.3744L406.988 44.6796ZM399.998 52.7662C398.291 56.3158 397.461 60.619 397.461 65.6364H399.461C399.461 60.8299 400.257 56.8418 401.8 53.6329L399.998 52.7662ZM397.461 65.6364C397.461 70.6537 398.291 74.9569 399.998 78.5065L401.8 77.6398C400.257 74.4309 399.461 70.4429 399.461 65.6364H397.461ZM400 78.5105C401.712 82.0325 404.037 84.7437 406.988 86.5931L408.05 84.8984C405.461 83.2762 403.372 80.8723 401.798 77.6358L400 78.5105ZM406.99 86.5947C409.945 88.4338 413.241 89.3494 416.853 89.3494V87.3494C413.597 87.3494 410.67 86.5292 408.047 84.8968L406.99 86.5947ZM416.853 89.3494C418.83 89.3494 420.736 89.078 422.568 88.5322L421.997 86.6155C420.357 87.1038 418.644 87.3494 416.853 87.3494V89.3494ZM422.568 88.5322C424.406 87.9848 426.085 87.1708 427.6 86.0886L426.438 84.4611C425.109 85.4102 423.631 86.1288 421.997 86.6155L422.568 88.5322ZM427.602 86.0872C429.142 84.9819 430.444 83.6293 431.507 82.0348L429.843 80.9254C428.912 82.3224 427.777 83.4996 426.436 84.4625L427.602 86.0872ZM431.506 82.0371C432.6 80.4058 433.357 78.5475 433.787 76.4759L431.829 76.0695C431.446 77.9127 430.782 79.526 429.845 80.9231L431.506 82.0371ZM432.808 77.2727H439.677V75.2727H432.808V77.2727ZM438.693 76.0972C438.195 78.8897 437.292 81.3679 435.993 83.5436L437.711 84.5686C439.145 82.1647 440.126 79.454 440.662 76.4483L438.693 76.0972ZM435.993 83.5436C434.687 85.7322 433.068 87.5873 431.135 89.1162L432.376 90.6849C434.505 89.0007 436.284 86.9595 437.711 84.5686L435.993 83.5436ZM431.139 89.1128C429.202 90.6272 427.025 91.783 424.602 92.5791L425.226 94.4792C427.862 93.6133 430.246 92.35 432.371 90.6884L431.139 89.1128ZM424.6 92.5797C422.198 93.3745 419.618 93.7756 416.853 93.7756V95.7756C419.814 95.7756 422.607 95.3456 425.228 94.4785L424.6 92.5797ZM416.853 93.7756C412.186 93.7756 408.071 92.638 404.477 90.383L403.414 92.0772C407.354 94.5495 411.844 95.7756 416.853 95.7756V93.7756ZM404.477 90.383C400.881 88.1266 398.037 84.9122 395.95 80.7036L394.158 81.5919C396.393 86.0992 399.476 89.6064 403.414 92.0772L404.477 90.383ZM395.95 80.7036C393.872 76.5118 392.814 71.5 392.814 65.6364H390.814C390.814 71.7386 391.915 77.0678 394.158 81.5919L395.95 80.7036ZM392.814 65.6364C392.814 59.7727 393.872 54.761 395.95 50.5692L394.158 49.6808C391.915 54.205 390.814 59.5341 390.814 65.6364H392.814ZM395.95 50.5692C398.037 46.3605 400.881 43.1461 404.477 40.8897L403.414 39.1955C399.476 41.6664 396.393 45.1736 394.158 49.6808L395.95 50.5692ZM404.477 40.8897C408.071 38.6347 412.186 37.4972 416.853 37.4972V35.4972C411.844 35.4972 407.354 36.7232 403.414 39.1955L404.477 40.8897ZM416.853 37.4972C419.618 37.4972 422.198 37.8982 424.6 38.693L425.228 36.7942C422.607 35.9271 419.814 35.4972 416.853 35.4972V37.4972ZM424.602 38.6937C427.023 39.489 429.199 40.6527 431.135 42.1842L432.376 40.6155C430.25 38.934 427.864 37.6602 425.226 36.7935L424.602 38.6937ZM431.139 42.1877C433.07 43.6971 434.688 45.5416 435.993 47.7291L437.711 46.7042C436.283 44.3121 434.503 42.2787 432.371 40.612L431.139 42.1877ZM435.995 47.7321C437.291 49.8869 438.194 52.3633 438.693 55.1745L440.662 54.8255C440.126 51.8015 439.145 49.0889 437.709 46.7011L435.995 47.7321ZM456.428 94V95H457.428V94H456.428ZM449.891 94H448.891V95H449.891V94ZM449.891 37.2727V36.2727H448.891V37.2727H449.891ZM456.428 37.2727H457.428V36.2727H456.428V37.2727ZM456.428 58.1023H455.428V59.1023H456.428V58.1023ZM456.982 58.1023V59.1023H457.626L457.893 58.5155L456.982 58.1023ZM461.469 52.8672L462.013 53.7063L462.015 53.7051L461.469 52.8672ZM477.119 52.6456L476.648 53.5278L476.654 53.5308L477.119 52.6456ZM482.188 57.9361L481.295 58.3861L481.299 58.3944L482.188 57.9361ZM484.016 94V95H485.016V94H484.016ZM477.479 94H476.479V95H477.479V94ZM474.848 59.5703L474.116 60.2516L474.123 60.2591L474.848 59.5703ZM461.857 58.13L461.387 57.2473L461.383 57.2495L461.857 58.13ZM457.868 62.0909L456.997 61.5998L456.993 61.6068L457.868 62.0909ZM455.428 68.4062V94H457.428V68.4062H455.428ZM456.428 93H449.891V95H456.428V93ZM450.891 94V37.2727H448.891V94H450.891ZM449.891 38.2727H456.428V36.2727H449.891V38.2727ZM455.428 37.2727V58.1023H457.428V37.2727H455.428ZM456.428 59.1023H456.982V57.1023H456.428V59.1023ZM457.893 58.5155C458.812 56.4893 460.182 54.8933 462.013 53.7063L460.925 52.028C458.768 53.4263 457.146 55.3203 456.071 57.689L457.893 58.5155ZM462.015 53.7051C463.814 52.5336 466.28 51.9006 469.502 51.9006V49.9006C466.039 49.9006 463.151 50.5786 460.923 52.0293L462.015 53.7051ZM469.502 51.9006C472.265 51.9006 474.637 52.4542 476.648 53.5277L477.59 51.7634C475.243 50.5103 472.537 49.9006 469.502 49.9006V51.9006ZM476.654 53.5308C478.633 54.5706 480.18 56.1737 481.295 58.3861L483.081 57.4861C481.795 54.9343 479.963 53.0104 477.584 51.7603L476.654 53.5308ZM481.299 58.3944C482.423 60.5733 483.016 63.4124 483.016 66.9659H485.016C485.016 63.2069 484.391 60.0261 483.077 57.4778L481.299 58.3944ZM483.016 66.9659V94H485.016V66.9659H483.016ZM484.016 93H477.479V95H484.016V93ZM478.479 94V67.4091H476.479V94H478.479ZM478.479 67.4091C478.479 63.8595 477.555 60.9682 475.573 58.8816L474.123 60.2591C475.649 61.8656 476.479 64.2002 476.479 67.4091H478.479ZM475.58 58.889C473.616 56.7787 470.917 55.7727 467.618 55.7727V57.7727C470.488 57.7727 472.608 58.6318 474.116 60.2516L475.58 58.889ZM467.618 55.7727C465.331 55.7727 463.246 56.2571 461.387 57.2474L462.327 59.0126C463.866 58.1932 465.622 57.7727 467.618 57.7727V55.7727ZM461.383 57.2495C459.529 58.248 458.065 59.7069 456.997 61.5998L458.74 62.582C459.63 61.0033 460.825 59.8216 462.331 59.0104L461.383 57.2495ZM456.993 61.6068C455.933 63.5232 455.428 65.8038 455.428 68.4062H457.428C457.428 66.0599 457.883 64.1302 458.743 62.575L456.993 61.6068ZM503.149 92.1442L502.613 92.9885L502.616 92.9901L503.149 92.1442ZM496.391 84.4716L495.492 84.9107L495.494 84.9148L496.391 84.4716ZM496.391 61.343L495.493 60.9018L495.491 60.9059L496.391 61.343ZM503.149 53.6428L502.616 52.7969L502.613 52.7984L503.149 53.6428ZM523.342 53.6428L522.806 54.4871L522.808 54.4886L523.342 53.6428ZM530.1 61.343L529.201 61.7802L529.203 61.7842L530.1 61.343ZM530.1 84.4716L529.204 84.0284L529.202 84.0325L530.1 84.4716ZM523.342 92.1442L522.808 91.2983L522.806 91.2998L523.342 92.1442ZM520.461 86.7706L519.839 85.9875L520.461 86.7706ZM524.643 80.8707L525.581 81.2187L524.643 80.8707ZM524.643 64.9993L525.582 64.6536L524.643 64.9993ZM520.461 59.044L521.087 58.2647L520.461 59.044ZM506.058 59.044L505.431 58.2647L506.058 59.044ZM501.875 64.9993L500.937 64.6536L501.875 64.9993ZM501.875 80.8707L500.938 81.2187L501.875 80.8707ZM506.058 86.7706L506.679 85.9875L506.058 86.7706ZM513.259 93.8864C509.584 93.8864 506.403 93.0139 503.683 91.2983L502.616 92.9901C505.693 94.9307 509.253 95.8864 513.259 95.8864V93.8864ZM503.685 91.2998C500.971 89.5772 498.837 87.1639 497.287 84.0284L495.494 84.9148C497.194 88.3532 499.566 91.0549 502.613 92.9885L503.685 91.2998ZM497.289 84.0325C495.761 80.9071 494.981 77.2218 494.981 72.9489H492.981C492.981 77.4657 493.807 81.4622 495.492 84.9107L497.289 84.0325ZM494.981 72.9489C494.981 68.6377 495.762 64.9242 497.29 61.7802L495.491 60.9059C493.806 64.3727 492.981 68.3963 492.981 72.9489H494.981ZM497.288 61.7842C498.839 58.6303 500.972 56.2088 503.685 54.4871L502.613 52.7984C499.565 54.7329 497.193 57.445 495.493 60.9019L497.288 61.7842ZM503.683 54.4886C506.403 52.773 509.584 51.9006 513.259 51.9006V49.9006C509.253 49.9006 505.693 50.8562 502.616 52.7969L503.683 54.4886ZM513.259 51.9006C516.935 51.9006 520.105 52.773 522.806 54.4871L523.877 52.7984C520.817 50.8562 517.265 49.9006 513.259 49.9006V51.9006ZM522.808 54.4886C525.538 56.2101 527.67 58.6299 529.201 61.7802L531 60.9059C529.318 57.4454 526.943 54.7317 523.875 52.7969L522.808 54.4886ZM529.203 61.7842C530.748 64.9272 531.538 68.6393 531.538 72.9489H533.538C533.538 68.3948 532.702 64.3697 530.998 60.9019L529.203 61.7842ZM531.538 72.9489C531.538 77.2202 530.748 80.904 529.204 84.0284L530.997 84.9148C532.702 81.4653 533.538 77.4673 533.538 72.9489H531.538ZM529.202 84.0325C527.671 87.1643 525.54 89.576 522.808 91.2983L523.875 92.9901C526.942 91.0561 529.316 88.3528 530.999 84.9107L529.202 84.0325ZM522.806 91.2998C520.105 93.0139 516.935 93.8864 513.259 93.8864V95.8864C517.265 95.8864 520.817 94.9307 523.877 92.9885L522.806 91.2998ZM513.259 90.0142C516.353 90.0142 518.987 89.2179 521.083 87.5537L519.839 85.9875C518.168 87.3147 516.001 88.0142 513.259 88.0142V90.0142ZM521.083 87.5537C523.121 85.9353 524.618 83.813 525.581 81.2187L523.706 80.5227C522.859 82.8035 521.568 84.6144 519.839 85.9875L521.083 87.5537ZM525.581 81.2187C526.531 78.6599 527.001 75.9003 527.001 72.9489H525.001C525.001 75.685 524.566 78.2066 523.706 80.5227L525.581 81.2187ZM527.001 72.9489C527.001 69.9974 526.531 67.2294 525.582 64.6536L523.705 65.345C524.566 67.6811 525.001 70.2129 525.001 72.9489H527.001ZM525.582 64.6536C524.62 62.0421 523.124 59.9019 521.087 58.2647L519.834 59.8234C521.565 61.2146 522.858 63.0446 523.705 65.345L525.582 64.6536ZM521.087 58.2647C518.992 56.5798 516.356 55.7727 513.259 55.7727V57.7727C515.998 57.7727 518.163 58.4799 519.834 59.8234L521.087 58.2647ZM513.259 55.7727C510.163 55.7727 507.527 56.5798 505.431 58.2647L506.684 59.8234C508.355 58.4799 510.521 57.7727 513.259 57.7727V55.7727ZM505.431 58.2647C503.394 59.9019 501.899 62.0421 500.937 64.6536L502.813 65.345C503.661 63.0446 504.954 61.2146 506.684 59.8234L505.431 58.2647ZM500.937 64.6536C499.988 67.2294 499.518 69.9974 499.518 72.9489H501.518C501.518 70.2129 501.953 67.6811 502.813 65.345L500.937 64.6536ZM499.518 72.9489C499.518 75.9003 499.988 78.6599 500.938 81.2187L502.812 80.5227C501.953 78.2066 501.518 75.685 501.518 72.9489H499.518ZM500.938 81.2187C501.901 83.813 503.398 85.9353 505.436 87.5537L506.679 85.9875C504.95 84.6144 503.659 82.8035 502.812 80.5227L500.938 81.2187ZM505.436 87.5537C507.531 89.2179 510.165 90.0142 513.259 90.0142V88.0142C510.518 88.0142 508.351 87.3147 506.679 85.9875L505.436 87.5537ZM542.516 94H541.516V95H542.516V94ZM542.516 51.4545V50.4545H541.516V51.4545H542.516ZM548.832 51.4545H549.832V50.4545H548.832V51.4545ZM548.832 57.8807H547.832V58.8807H548.832V57.8807ZM549.275 57.8807V58.8807H549.972L550.213 58.2264L549.275 57.8807ZM553.485 52.7564L552.943 51.9162V51.9162L553.485 52.7564ZM563.789 50.9006H564.789V49.9956L563.888 49.9055L563.789 50.9006ZM563.789 57.5483L563.546 58.5184L564.789 58.8291V57.5483H563.789ZM562.265 57.299L562.101 58.2854L562.114 58.2876L562.127 58.2894L562.265 57.299ZM554.26 58.407L554.728 59.291L554.732 59.289L554.26 58.407ZM550.438 61.9524L549.589 61.4243L549.587 61.4271L550.438 61.9524ZM549.053 94V95H550.053V94H549.053ZM543.516 94V51.4545H541.516V94H543.516ZM542.516 52.4545H548.832V50.4545H542.516V52.4545ZM547.832 51.4545V57.8807H549.832V51.4545H547.832ZM548.832 58.8807H549.275V56.8807H548.832V58.8807ZM550.213 58.2264C550.908 56.3408 552.163 54.7998 554.027 53.5966L552.943 51.9162C550.744 53.3351 549.193 55.2103 548.336 57.535L550.213 58.2264ZM554.027 53.5966C555.888 52.3956 557.987 51.7898 560.354 51.7898V49.7898C557.624 49.7898 555.144 50.495 552.943 51.9162L554.027 53.5966ZM560.354 51.7898C560.823 51.7898 561.414 51.7988 562.129 51.8171L562.18 49.8178C561.455 49.7992 560.846 49.7898 560.354 49.7898V51.7898ZM562.129 51.8171C562.843 51.8354 563.358 51.8624 563.689 51.8956L563.888 49.9055C563.481 49.8648 562.907 49.8364 562.18 49.8178L562.129 51.8171ZM562.789 50.9006V57.5483H564.789V50.9006H562.789ZM564.031 56.5782C563.748 56.5072 563.183 56.4173 562.404 56.3086L562.127 58.2894C562.936 58.4023 563.387 58.4786 563.546 58.5184L564.031 56.5782ZM562.43 56.3126C561.595 56.1734 560.718 56.1051 559.8 56.1051V58.1051C560.619 58.1051 561.385 58.1661 562.101 58.2854L562.43 56.3126ZM559.8 56.1051C557.588 56.1051 555.576 56.5705 553.789 57.5249L554.732 59.289C556.195 58.5077 557.876 58.1051 559.8 58.1051V56.1051ZM553.793 57.5229C552.033 58.4534 550.626 59.7568 549.589 61.4243L551.287 62.4805C552.134 61.1197 553.275 60.0593 554.728 59.291L553.793 57.5229ZM549.587 61.4271C548.557 63.0952 548.053 64.9885 548.053 67.0767H550.053C550.053 65.324 550.472 63.8011 551.289 62.4777L549.587 61.4271ZM548.053 67.0767V94H550.053V67.0767H548.053ZM549.053 93H542.516V95H549.053V93ZM576.918 92.1996L576.363 93.0316L576.367 93.0342L576.918 92.1996ZM570.547 84.5547L569.64 84.9753L569.641 84.9773L570.547 84.5547ZM570.547 61.2045L569.641 60.7819L570.547 61.2045ZM576.946 53.5874L576.398 52.751L576.946 53.5874ZM592.983 52.2855L592.485 53.1526L592.497 53.1592L592.983 52.2855ZM596.695 55.3878L595.888 55.9775L595.893 55.9847L595.898 55.9919L596.695 55.3878ZM598.717 58.2131L597.879 58.7581L598.174 59.2131H598.717V58.2131ZM599.271 58.2131V59.2131H600.271V58.2131H599.271ZM599.271 37.2727V36.2727H598.271V37.2727H599.271ZM605.808 37.2727H606.808V36.2727H605.808V37.2727ZM605.808 94V95H606.808V94H605.808ZM599.493 94H598.493V95H599.493V94ZM599.493 87.4631H600.493V86.4631H599.493V87.4631ZM598.717 87.4631V86.4631H598.16L597.867 86.9367L598.717 87.4631ZM596.667 90.3991L597.463 91.0052L597.467 90.9991L596.667 90.3991ZM592.873 93.5291L593.355 94.4052L593.362 94.401L592.873 93.5291ZM593.842 86.9645L594.445 87.7625L594.45 87.7586L593.842 86.9645ZM597.969 81.2308L598.902 81.5912L598.903 81.5889L597.969 81.2308ZM597.997 64.3899L597.064 64.7489L597.065 64.7513L597.997 64.3899ZM593.898 58.7947L593.3 59.5967L593.305 59.6006L593.898 58.7947ZM580.27 58.9055L580.879 59.6988L580.88 59.6979L580.27 58.9055ZM576.143 64.6392L575.208 64.2826L575.207 64.2865L576.143 64.6392ZM576.17 80.9815L575.233 81.3311L575.237 81.3396L576.17 80.9815ZM580.325 86.8537L579.701 87.6354L579.71 87.6422L580.325 86.8537ZM586.308 93.8864C582.94 93.8864 580.005 93.0385 577.469 91.3649L576.367 93.0342C579.26 94.943 582.585 95.8864 586.308 95.8864V93.8864ZM577.473 91.3675C574.927 89.6706 572.918 87.272 571.454 84.1321L569.641 84.9773C571.242 88.4113 573.48 91.1092 576.363 93.0316L577.473 91.3675ZM571.455 84.134C569.996 80.9878 569.248 77.232 569.248 72.8381H567.248C567.248 77.4555 568.034 81.5108 569.64 84.9753L571.455 84.134ZM569.248 72.8381C569.248 68.4822 569.995 64.7547 571.454 61.6272L569.641 60.7819C568.034 64.2283 567.248 68.2564 567.248 72.8381H569.248ZM571.454 61.6272C572.917 58.4897 574.933 56.102 577.494 54.4237L576.398 52.751C573.492 54.6551 571.243 57.3456 569.641 60.7819L571.454 61.6272ZM577.494 54.4237C580.048 52.7495 583.012 51.9006 586.419 51.9006V49.9006C582.661 49.9006 579.309 50.8428 576.398 52.751L577.494 54.4237ZM586.419 51.9006C589.094 51.9006 591.087 52.3491 592.485 53.1525L593.482 51.4185C591.667 50.3753 589.283 49.9006 586.419 49.9006V51.9006ZM592.497 53.1592C594.031 54.0134 595.144 54.9597 595.888 55.9775L597.503 54.7981C596.547 53.4892 595.186 52.3673 593.47 51.4118L592.497 53.1592ZM595.898 55.9919C596.759 57.1279 597.417 58.0482 597.879 58.7581L599.556 57.6681C599.057 56.9007 598.367 55.9374 597.492 54.7837L595.898 55.9919ZM598.717 59.2131H599.271V57.2131H598.717V59.2131ZM600.271 58.2131V37.2727H598.271V58.2131H600.271ZM599.271 38.2727H605.808V36.2727H599.271V38.2727ZM604.808 37.2727V94H606.808V37.2727H604.808ZM605.808 93H599.493V95H605.808V93ZM600.493 94V87.4631H598.493V94H600.493ZM599.493 86.4631H598.717V88.4631H599.493V86.4631ZM597.867 86.9367C597.409 87.6764 596.745 88.6285 595.867 89.7991L597.467 90.9991C598.362 89.8061 599.065 88.8008 599.567 87.9894L597.867 86.9367ZM595.872 89.7931C595.089 90.8215 593.94 91.7823 592.383 92.6573L593.362 94.401C595.092 93.4293 596.474 92.3035 597.463 91.0052L595.872 89.7931ZM592.39 92.6531C590.947 93.4478 588.944 93.8864 586.308 93.8864V95.8864C589.138 95.8864 591.512 95.4201 593.355 94.4051L592.39 92.6531ZM587.194 90.0142C589.999 90.0142 592.435 89.2799 594.445 87.7625L593.24 86.1665C591.63 87.382 589.634 88.0142 587.194 88.0142V90.0142ZM594.45 87.7586C596.426 86.2461 597.904 84.1748 598.902 81.5912L597.036 80.8704C596.151 83.1619 594.877 84.913 593.234 86.1704L594.45 87.7586ZM598.903 81.5889C599.897 78.9964 600.382 76.0365 600.382 72.7273H598.382C598.382 75.8442 597.925 78.5533 597.036 80.8728L598.903 81.5889ZM600.382 72.7273C600.382 69.4565 599.907 66.5501 598.929 64.0285L597.065 64.7513C597.934 66.9939 598.382 69.6458 598.382 72.7273H600.382ZM598.93 64.0309C597.949 61.4784 596.475 59.4474 594.49 57.9889L593.305 59.6006C594.94 60.8011 596.199 62.5003 597.064 64.7489L598.93 64.0309ZM594.495 57.9928C592.483 56.4943 590.029 55.7727 587.194 55.7727V57.7727C589.678 57.7727 591.692 58.3991 593.3 59.5967L594.495 57.9928ZM587.194 55.7727C584.247 55.7727 581.712 56.5326 579.66 58.1132L580.88 59.6979C582.52 58.4347 584.602 57.7727 587.194 57.7727V55.7727ZM579.661 58.1123C577.668 59.6419 576.189 61.7127 575.208 64.2826L577.077 64.9958C577.943 62.7277 579.215 60.976 580.879 59.6988L579.661 58.1123ZM575.207 64.2865C574.253 66.8168 573.785 69.635 573.785 72.7273H575.785C575.785 69.8366 576.222 67.2627 577.078 64.9919L575.207 64.2865ZM573.785 72.7273C573.785 75.8578 574.263 78.7297 575.233 81.3311L577.107 80.6319C576.231 78.2845 575.785 75.6536 575.785 72.7273H573.785ZM575.237 81.3396C576.234 83.9406 577.717 86.0521 579.701 87.6353L580.949 86.0721C579.277 84.7377 577.99 82.9344 577.104 80.6235L575.237 81.3396ZM579.71 87.6422C581.761 89.2417 584.277 90.0142 587.194 90.0142V88.0142C584.646 88.0142 582.583 87.3464 580.94 86.0652L579.71 87.6422Z" fill="black" mask="url(#path-3-outside-1_6_8)"/>
</svg>
